<svg width="19" height="19" viewBox="0 0 19 19" fill="none" xmlns="http://www.w3.org/2000/svg">
<path d="M18.2353 2.47059C17.8824 2.11765 17.4118 1.88235 17.0588 1.88235C16.9412 1.41177 16.8235 1.05882 16.4706 0.705883C15.6471 -0.117647 14.2353 -0.117647 13.4118 0.705883C12.7059 1.41177 12.5882 2.58824 13.1765 3.41177L10.5882 5.88235L9.29412 4.58824L6.70588 7.17647C6.47059 7.05882 6.11765 7.05882 5.88235 7.05882C2.58824 7.05882 0 9.64706 0 12.9412C0 16.2353 2.58824 18.8235 5.88235 18.8235C9.17647 18.8235 11.7647 16.2353 11.7647 12.9412C11.7647 12.7059 11.7647 12.3529 11.6471 12.1176L14.2353 9.52941L12.9412 8.23529L15.4118 5.76471C16.2353 6.35294 17.4118 6.23529 18.1176 5.52941C19.0588 4.70588 19.0588 3.29412 18.2353 2.47059Z" fill="#4AB8FF"/>
</svg>
